<?xml version="1.0" encoding="UTF-8"?>
<svg width="25px" height="25px" viewBox="0 0 25 25" version="1.1" xmlns="http://www.w3.org/2000/svg" xmlns:xlink="http://www.w3.org/1999/xlink">
    <!-- Generator: Sketch 55.2 (78181) - https://sketchapp.com -->
    <title>icon--youtube</title>
    <desc>Created with Sketch.</desc>
    <g id="icon--youtube" stroke="none" stroke-width="1" fill="none" fill-rule="evenodd">
        <path d="M0.928255948,23.6474921 C0.319330389,23.017897 1.42108547e-14,22.2720885 1.42108547e-14,21.4126209 L1.42108547e-14,3.15308409 C1.42108547e-14,2.29233938 0.319330389,1.54780799 0.928255948,0.916935754 C1.56691673,0.315436116 2.32193271,0 3.19201105,0 L21.6769742,0 C22.5470526,0 23.3020685,0.315436116 23.9407293,0.916935754 C24.5496549,1.54780799 24.8689853,2.29233938 24.8689853,3.15308409 L24.8689853,21.4126209 C24.8689853,22.2720885 24.5496549,23.017897 23.9407293,23.6474921 C23.3020685,24.2502688 22.5470526,24.565705 21.6769742,24.565705 L3.19201105,24.565705 C2.32193271,24.565705 1.56691673,24.2502688 0.928255948,23.6474921 Z M7,3.85714286 C4.790861,3.85714286 3,5.64800386 3,7.85714286 L3,16.1428571 C3,18.3519961 4.790861,20.1428571 7,20.1428571 L18,20.1428571 C20.209139,20.1428571 22,18.3519961 22,16.1428571 L22,7.85714286 C22,5.64800386 20.209139,3.85714286 18,3.85714286 L7,3.85714286 Z" id="Combined-Shape" fill="#FFFFFF"></path>
        <polygon id="Triangle" fill="#FFFFFF" transform="translate(13.500000, 12.000000) rotate(-270.000000) translate(-13.500000, -12.000000) " points="13.5 8.5 17 15.5 10 15.5"></polygon>
    </g>
</svg>