<?xml version="1.0" encoding="UTF-8"?>
<svg width="25px" height="25px" viewBox="0 0 25 25" version="1.1" xmlns="http://www.w3.org/2000/svg" xmlns:xlink="http://www.w3.org/1999/xlink">
    <!-- Generator: Sketch 55.2 (78181) - https://sketchapp.com -->
    <title>icon--linkedin</title>
    <desc>Created with Sketch.</desc>
    <g id="icon--linkedin" stroke="none" stroke-width="1" fill="none" fill-rule="evenodd">
        <path d="M0.928255948,23.6474921 C0.319330389,23.017897 2.84217094e-14,22.2720885 2.84217094e-14,21.4126209 L2.84217094e-14,3.15308409 C2.84217094e-14,2.29233938 0.319330389,1.54780799 0.928255948,0.916935754 C1.56691673,0.315436116 2.32193271,0 3.19201105,0 L21.6769742,0 C22.5470526,0 23.3020685,0.315436116 23.9407293,0.916935754 C24.5496549,1.54780799 24.8689853,2.29233938 24.8689853,3.15308409 L24.8689853,21.4126209 C24.8689853,22.2720885 24.5496549,23.017897 23.9407293,23.6474921 C23.3020685,24.2502688 22.5470526,24.565705 21.6769742,24.565705 L3.19201105,24.565705 C2.32193271,24.565705 1.56691673,24.2502688 0.928255948,23.6474921 Z M20.9651717,13.8074951 C20.9651717,10.4994563 19.1711392,8.96019417 16.7780046,8.96019417 C14.8463944,8.96019417 13.9834176,10.0069903 13.5001995,10.739767 L13.5001995,10.7745631 L13.476297,10.7745631 C13.483239,10.7634951 13.4928237,10.7511845 13.5001995,10.739767 L13.5001995,9.21320388 L9.86314617,9.21320388 C9.91213457,10.2242718 9.86314617,19.9829126 9.86314617,19.9829126 L13.5005545,19.9829126 L13.5005545,13.9684272 C13.5005545,13.6461748 13.5252459,13.3257476 13.6211717,13.095534 C13.8842181,12.4515728 14.4821369,11.7858641 15.4868724,11.7858641 C16.803051,11.7858641 17.3289861,12.7736699 17.3289861,14.2210874 L17.3289861,19.9829126 L20.9651717,19.9829126 L20.9651717,13.8074951 Z M6.05826218,4.0216699 C4.81390951,4.0216699 4,4.82528155 4,5.88205825 C4,6.91580583 4.79036195,7.74380583 6.00998376,7.74380583 L6.03428074,7.74380583 C7.30273318,7.74380583 8.09159629,6.91596117 8.09159629,5.88205825 C8.06769374,4.82528155 7.30273318,4.0216699 6.05826218,4.0216699 Z M4.21603016,19.9829126 L7.852058,19.9829126 L7.852058,9.21320388 L4.21603016,9.21320388 L4.21603016,19.9829126 Z" id="Combined-Shape" fill="#FFFFFF"></path>
    </g>
</svg>