<?xml version="1.0" encoding="UTF-8"?>
<svg width="25px" height="25px" viewBox="0 0 25 25" version="1.1" xmlns="http://www.w3.org/2000/svg" xmlns:xlink="http://www.w3.org/1999/xlink">
    <!-- Generator: Sketch 55.2 (78181) - https://sketchapp.com -->
    <title>icon--instagram</title>
    <desc>Created with Sketch.</desc>
    <g id="icon--instagram" stroke="none" stroke-width="1" fill="none" fill-rule="evenodd">
        <path d="M0.928255948,23.6474921 C1.56691673,24.2502688 2.32193271,24.565705 3.19201105,24.565705 L21.6769742,24.565705 C22.5470526,24.565705 23.3020685,24.2502688 23.9407293,23.6474921 C24.5496549,23.017897 24.8689853,22.2720885 24.8689853,21.4126209 L24.8689853,3.15308409 C24.8689853,2.29233938 24.5496549,1.54780799 23.9407293,0.916935754 C23.3020685,0.315436116 22.5470526,0 21.6769742,0 L3.19201105,0 C2.32193271,0 1.56691673,0.315436116 0.928255948,0.916935754 C0.319330389,1.54780799 0,2.29233938 0,3.15308409 L0,21.4126209 C0,22.2720885 0.319330389,23.017897 0.928255948,23.6474921 L0.928255948,23.6474921 Z M2.75632546,10.4042835 L5.04852295,10.4042835 C4.84554776,11.0645284 4.7304854,11.7809642 4.7304854,12.4974001 C4.7304854,14.5330486 5.48420854,16.2813564 6.99294767,17.7436008 C8.50297963,19.1764725 10.3310491,19.8929084 12.4487138,19.8929084 C13.870833,19.8929084 15.1481545,19.5493768 16.3375633,18.8891319 C17.526972,18.2301642 18.4552279,17.341324 19.1520663,16.2238883 C19.8489047,15.0770801 20.1966775,13.8447082 20.1966775,12.4974001 C20.1966775,11.7809642 20.0803223,11.0645284 19.8773471,10.4042835 L22.0544822,10.4042835 L22.0544822,20.752376 C22.0544822,21.0397166 21.9665694,21.268312 21.7635942,21.4407164 C21.560619,21.6412163 21.3292014,21.7267799 21.0680487,21.7267799 L3.74275901,21.7267799 C3.45316384,21.7267799 3.22045344,21.6412163 3.04721347,21.4407164 C2.84423828,21.268312 2.75632546,21.0397166 2.75632546,20.752376 L2.75632546,10.4042835 L2.75632546,10.4042835 Z M12.4487138,7.4529764 C13.8423906,7.4529764 15.0317993,7.91144428 15.9897905,8.85647556 C16.976224,9.80278391 17.4687944,10.9202195 17.4687944,12.2394321 C17.4687944,13.5573676 16.976224,14.7041759 15.9897905,15.6223887 C15.0317993,16.56742 13.8423906,17.0258878 12.4487138,17.0258878 C11.0847723,17.0258878 9.89536355,16.56742 8.93737238,15.6223887 C7.95093883,14.7041759 7.45707564,13.5573676 7.45707564,12.2394321 C7.45707564,10.9202195 7.95093883,9.80278391 8.93737238,8.85647556 C9.89536355,7.91144428 11.0847723,7.4529764 12.4487138,7.4529764 L12.4487138,7.4529764 Z M17.0046664,3.84014737 C17.0046664,3.52471125 17.1210216,3.26802033 17.3239968,3.03814785 C17.5567072,2.83764797 17.81786,2.72271174 18.1358975,2.72271174 L20.9516934,2.72271174 C21.2412886,2.72271174 21.5024414,2.83764797 21.7351518,3.03814785 C21.938127,3.26802033 22.0544822,3.52471125 22.0544822,3.84014737 L22.0544822,6.47729546 C22.0544822,6.79273158 21.938127,7.05069958 21.7351518,7.28057205 C21.5024414,7.48107193 21.2412886,7.59600817 20.9516934,7.59600817 L18.1358975,7.59600817 C17.81786,7.59600817 17.5567072,7.48107193 17.3239968,7.28057205 C17.1210216,7.05069958 17.0046664,6.79273158 17.0046664,6.47729546 L17.0046664,3.84014737 L17.0046664,3.84014737 Z" id="icon/instagram" fill="#FFFFFF"></path>
    </g>
</svg>