<?xml version="1.0" encoding="UTF-8"?>
<svg width="25px" height="25px" viewBox="0 0 25 25" version="1.1" xmlns="http://www.w3.org/2000/svg" xmlns:xlink="http://www.w3.org/1999/xlink">
    <!-- Generator: Sketch 55.2 (78181) - https://sketchapp.com -->
    <title>icon--twitter</title>
    <desc>Created with Sketch.</desc>
    <g id="icon--twitter" stroke="none" stroke-width="1" fill="none" fill-rule="evenodd">
        <path d="M0.928255948,23.6474921 C0.319330389,23.017897 0,22.2720885 0,21.4126209 L0,3.15308409 C0,2.29233938 0.319330389,1.54780799 0.928255948,0.916935754 C1.56691673,0.315436116 2.32193271,0 3.19201105,0 L21.6769742,0 C22.5470526,0 23.3020685,0.315436116 23.9407293,0.916935754 C24.5496549,1.54780799 24.8689853,2.29233938 24.8689853,3.15308409 L24.8689853,21.4126209 C24.8689853,22.2720885 24.5496549,23.017897 23.9407293,23.6474921 C23.3020685,24.2502688 22.5470526,24.565705 21.6769742,24.565705 L3.19201105,24.565705 C2.32193271,24.565705 1.56691673,24.2502688 0.928255948,23.6474921 Z M9.65179929,19.4424783 C10.9627978,19.4424783 12.1907755,19.2406117 13.3585403,18.8359772 C14.5053218,18.4106153 15.4878865,17.8644938 16.3071465,17.1768855 C17.1054232,16.4892772 17.8225038,15.7007355 18.4164217,14.8103594 C18.9893563,13.900157 19.4400405,12.9692273 19.7265079,11.9986451 C20.0138875,11.028063 20.1571211,10.0565797 20.1571211,9.06527017 L20.1571211,8.60025589 C20.8732894,8.07486185 21.4881906,7.44763329 22,6.7194714 C21.2829194,7.00244521 20.5868221,7.20431187 19.8697415,7.26559282 C20.6689306,6.79967735 21.2217942,6.13279641 21.4881906,5.26314761 C20.77111,5.68760832 19.9929042,5.99130951 19.1535732,6.1526226 C18.4164217,5.38390714 17.5150532,5 16.4503801,5 C15.4468322,5 14.566447,5.34335357 13.8493664,6.05168927 C13.1331982,6.77985116 12.7646224,7.62967377 12.7646224,8.64080946 C12.7646224,8.90395708 12.8056766,9.18693088 12.8668018,9.46990469 C11.3514445,9.40952493 9.9382666,9.0247166 8.60719716,8.35783566 C7.297111,7.67022734 6.17040041,6.77985116 5.24896097,5.66778213 C4.92143943,6.23372974 4.73715155,6.84023092 4.73715155,7.50801305 C4.73715155,8.11451423 4.90136847,8.70118923 5.18783578,9.24731064 C5.49528637,9.77360587 5.8839331,10.1980666 6.39574252,10.5423213 C5.80182463,10.521594 5.24896097,10.3602809 4.71708059,10.0773071 L4.71708059,10.1178606 C4.71708059,11.0073356 5.0035479,11.7760511 5.55641156,12.4438332 C6.12934617,13.1116153 6.82544349,13.5153487 7.68575773,13.6973891 C7.35823619,13.7784963 7.03071465,13.8190499 6.70319311,13.8190499 C6.49792195,13.8190499 6.27257983,13.7992237 6.00709579,13.7586701 C6.25250887,14.486832 6.68220983,15.0933332 7.31718196,15.5592486 C7.95215408,16.0440891 8.66923467,16.2865093 9.4675114,16.2865093 C8.11637101,17.3390998 6.60101368,17.8446676 4.8803852,17.8446676 C4.55286366,17.8446676 4.26639635,17.8446676 4,17.8041141 C5.69964521,18.8963569 7.60364927,19.4424783 9.65179929,19.4424783 Z" id="icon/twitter" fill="#FFFFFF"></path>
    </g>
</svg>