<?xml version="1.0" encoding="UTF-8"?>
<svg width="25px" height="25px" viewBox="0 0 25 25" version="1.1" xmlns="http://www.w3.org/2000/svg" xmlns:xlink="http://www.w3.org/1999/xlink">
    <!-- Generator: Sketch 55.2 (78181) - https://sketchapp.com -->
    <title>icon--facebook</title>
    <desc>Created with Sketch.</desc>
    <g id="icon--facebook" stroke="none" stroke-width="1" fill="none" fill-rule="evenodd">
        <path d="M17.2440055,24.6202954 L17.2440055,15.8953774 L20.2536988,15.8953774 L20.719125,12.4421212 L17.2440055,12.4421212 L17.2440055,10.2226371 C17.2440055,9.67895673 17.3714549,9.26023893 17.6046401,8.96741623 C17.8378252,8.69510978 18.2824819,8.54869843 18.9603237,8.54869843 L20.8040912,8.54869843 L20.8040912,5.47126246 C20.1687325,5.36681614 19.2784751,5.32485111 18.1134935,5.32485111 C16.7568657,5.32485111 15.6551368,5.72212011 14.8498456,6.51852324 C14.0237848,7.31306126 13.6206672,8.44331956 13.6206672,9.88784936 L13.6206672,12.4421212 L10.611918,12.4421212 L10.611918,15.8953774 L13.6206672,15.8953774 L13.6206672,24.6202954 L3.18139281,24.6202954 C2.30938096,24.6202954 1.55268716,24.3041583 0.91260714,23.7000421 C0.302328413,23.0690479 -0.0177115987,22.321582 -0.0177115987,21.4602045 L-0.0177115987,3.16009094 C-0.0177115987,2.29743347 0.302328413,1.55124756 0.91260714,0.918973389 C1.55268716,0.316137085 2.30938096,0 3.18139281,0 L21.7074337,0 C22.5794455,0 23.3361393,0.316137085 23.9762193,0.918973389 C24.5864981,1.55124756 24.9065381,2.29743347 24.9065381,3.16009094 L24.9065381,21.4602045 C24.9065381,22.321582 24.5864981,23.0690479 23.9762193,23.7000421 C23.3361393,24.3041583 22.5794455,24.6202954 21.7074337,24.6202954 L17.2440055,24.6202954 Z" id="icon/facebook" fill="#FFFFFF"></path>
    </g>
</svg>